<svg width="23" height="20" viewBox="0 0 23 20" fill="none" xmlns="http://www.w3.org/2000/svg">
<path fill-rule="evenodd" clip-rule="evenodd" d="M4.21144 0.0982284L0.0177296 8.90374C0.00177129 8.93649 -0.00328578 8.97349 0.00329788 9.00932C0.00988155 9.04515 0.0277606 9.07794 0.0543203 9.10288L11.3805 19.9519C11.4127 19.9828 11.4555 20 11.5001 20C11.5447 20 11.5875 19.9828 11.6197 19.9519L22.9459 9.10356C22.9725 9.07861 22.9903 9.04583 22.9969 9.01C23.0035 8.97417 22.9985 8.93717 22.9825 8.90442L18.7888 0.0989058C18.7753 0.0693331 18.7535 0.0442814 18.7261 0.0267445C18.6987 0.00920762 18.6668 -7.2543e-05 18.6343 1.31083e-05H4.36729C4.3346 -0.00039341 4.30249 0.00866321 4.27484 0.0260905C4.24718 0.0435177 4.22516 0.0685711 4.21144 0.0982284Z" fill="#50AF95"/>
</svg>
