<svg width="15" height="14" viewBox="0 0 15 14" fill="none" xmlns="http://www.w3.org/2000/svg">
<path fill-rule="evenodd" clip-rule="evenodd" d="M8.95526 7.80762C8.87395 7.81372 8.45383 7.83878 7.5167 7.83878C6.77134 7.83878 6.24213 7.81643 6.05646 7.80762C3.17596 7.68096 1.02591 7.17972 1.02591 6.57959C1.02591 5.97946 3.17596 5.4789 6.05646 5.35021V7.30842C6.24484 7.32196 6.78421 7.3538 7.52958 7.3538C8.42402 7.3538 8.87192 7.31655 8.95255 7.30909V5.35156C11.827 5.47958 13.9723 5.98082 13.9723 6.57959C13.9723 7.17837 11.8276 7.6796 8.95255 7.80694L8.95526 7.80762ZM8.95526 5.14904V3.39674H12.9667V0.724609H2.04503V3.39674H6.05578V5.14836C2.79582 5.29805 0.344238 5.94356 0.344238 6.71709C0.344238 7.49062 2.79582 8.13546 6.05578 8.28583V13.901H8.95459V8.2838C12.2071 8.1341 14.6546 7.48927 14.6546 6.71642C14.6546 5.94356 12.2091 5.29873 8.95459 5.14836L8.95526 5.14904Z" fill="white"/>
</svg>
